<?xml version="1.0" encoding="UTF-8"?>
<svg id="Layer_1" data-name="Layer 1" xmlns="http://www.w3.org/2000/svg" viewBox="0 0 512 512">
  <defs>
    <style>
      .cls-1, .cls-2, .cls-3, .cls-4, .cls-5 {
        stroke: #000;
        stroke-linejoin: round;
        stroke-width: 12px;
      }

      .cls-1, .cls-2, .cls-5 {
        stroke-linecap: round;
      }

      .cls-1, .cls-4 {
        fill: none;
      }

      .cls-6 {
        opacity: .31;
      }

      .cls-2 {
        fill: #fff;
      }

      .cls-3 {
        fill: #f57512;
      }

      .cls-7 {
        stroke-width: 0px;
      }

      .cls-7, .cls-5 {
        fill: #0265a3;
      }
    </style>
  </defs>
  <g class="cls-6">
    <path class="cls-7" d="m496.11,290.77c-2.27-24.98-7.37-49.74-19.05-72.15-12.37-23.74-35.35-40.59-59.78-50.42-32.9-13.24-58.02-28.84-81.27-56.09-16-18.75-28.92-40.14-51.49-51.9-22.56-11.76-50.28-8.98-72.76,1.64-20.28,9.58-26.15,28.7-31.87,48.8-12.31,43.26-32.63,84.26-59.71,120.18-12.54,16.64-26.67,32.98-42.22,46.85-15.67,13.97-33.52,25.49-47.71,41.09-22.15,24.36-20.58,57.85-1.88,84.31,11.15,15.79,26.76,27.7,43.17,37.6,9.33,5.63,19.67,9.05,30,12.34,18.07,5.74,29.06,10.67,46.98.66,12.48-6.97,24.41-14.94,37.23-21.26,23.21-11.44,47.38-11.18,72.29-9.22,15.57,1.22,30.77-.7,46.26-.6,15.78.1,31.53,3.01,47.32,2.1,16.61-.96,32.18-6.73,46.68-14.63,15.41-8.41,32.26-12.88,49.54-15.38,14.05-2.04,29.72-3.4,39.29-15.31,8.74-10.88,9.76-25.88,10.49-38.94.93-16.56-.02-33.17-1.52-49.67Z"/>
  </g>
  <rect class="cls-2" x="61.5" y="105" width="338" height="229" rx="21.55" ry="21.55"/>
  <path class="cls-5" d="m83.74,105h292.02c13.1,0,23.73,10.63,23.73,23.73v10.27H61.5v-11.76c0-12.28,9.97-22.24,22.24-22.24Z"/>
  <line class="cls-1" x1="61.5" y1="139" x2="399.5" y2="139"/>
  <rect class="cls-5" x="243.5" y="160" width="94" height="94"/>
  <line class="cls-1" x1="84.5" y1="175" x2="221.5" y2="175"/>
  <line class="cls-1" x1="84.5" y1="201" x2="221.5" y2="201"/>
  <line class="cls-1" x1="84.5" y1="227" x2="171.5" y2="227"/>
  <rect class="cls-3" x="82.5" y="256" width="145" height="41"/>
  <rect class="cls-2" x="61.5" y="358" width="338" height="49"/>
  <line class="cls-1" x1="99.5" y1="358" x2="99.5" y2="381"/>
  <line class="cls-1" x1="132.5" y1="358" x2="132.5" y2="375"/>
  <line class="cls-1" x1="166.5" y1="358" x2="166.5" y2="381"/>
  <line class="cls-1" x1="199.5" y1="358" x2="199.5" y2="375"/>
  <line class="cls-1" x1="231.5" y1="360" x2="231.5" y2="383"/>
  <line class="cls-1" x1="264.5" y1="360" x2="264.5" y2="377"/>
  <line class="cls-1" x1="298.5" y1="360" x2="298.5" y2="383"/>
  <line class="cls-1" x1="367.5" y1="363" x2="367.5" y2="386"/>
  <line class="cls-1" x1="331.5" y1="360" x2="331.5" y2="377"/>
  <polygon class="cls-3" points="450.5 300 436 332 421.5 300 421.5 139 450.5 139 450.5 300"/>
  <line class="cls-4" x1="421.5" y1="164" x2="450.5" y2="164"/>
</svg>