<?xml version="1.0" encoding="UTF-8"?>
<svg id="Layer_1" data-name="Layer 1" xmlns="http://www.w3.org/2000/svg" viewBox="0 0 512 512">
  <defs>
    <style>
      .cls-1, .cls-2 {
        fill: none;
      }

      .cls-1, .cls-2, .cls-3, .cls-4, .cls-5, .cls-6, .cls-7 {
        stroke: #000;
        stroke-linejoin: round;
      }

      .cls-1, .cls-2, .cls-4, .cls-5, .cls-7 {
        stroke-linecap: round;
      }

      .cls-1, .cls-7 {
        stroke-width: 12.66px;
      }

      .cls-2, .cls-3, .cls-4, .cls-6 {
        stroke-width: 12px;
      }

      .cls-8, .cls-9 {
        stroke-width: 0px;
      }

      .cls-8, .cls-4 {
        fill: #02659f;
      }

      .cls-10 {
        font-family: MyriadPro-Black, 'Myriad Pro';
        font-size: 40.33px;
        font-weight: 800;
      }

      .cls-11 {
        opacity: .31;
      }

      .cls-3, .cls-5, .cls-7 {
        fill: #fff;
      }

      .cls-5 {
        stroke-width: 12.25px;
      }

      .cls-6 {
        fill: #f17512;
      }
    </style>
  </defs>
  <g class="cls-11">
    <path class="cls-8" d="m115.47,327.24c-16.46-11.66-33.62-23.16-45.43-39.51-15.06-20.84-19.82-47.38-21.08-73.06-1.31-26.6,2.41-56.79,23.5-73.04,20.37-15.69,48.98-12.51,74.01-18.38,41.27-9.69,71.7-43.82,108.55-64.78,12.64-7.19,26.57-12.95,41.11-13.11,10.64-.12,21.13,2.79,30.87,7.07,42.86,18.84,69.27,61.64,92.96,102.03,7.78,13.25,15.58,26.58,21.2,40.88,8.78,22.36,11.97,46.46,15.09,70.28,2.92,22.29,5.74,45.63-2.09,66.7-7.13,19.21-23.22,34.87-42.61,41.49-16.05,5.48-34.14,5.12-48.78,13.66-21.41,12.48-29.96,40.75-51.75,52.57-14.94,8.1-33.59,6.7-49.34.31-26.02-10.54-45.12-31.2-65.51-49.54-25.42-22.85-52.82-43.81-80.69-63.56Z"/>
  </g>
  <g>
    <polygon class="cls-6" points="225.55 328.03 54.55 328.03 54.55 85.03 183.34 85.03 225.55 125.71 225.55 328.03"/>
    <polyline class="cls-7" points="182.05 93.53 182.05 125.71 225.55 125.71"/>
    <line class="cls-1" x1="90.05" y1="157.53" x2="193.05" y2="157.53"/>
    <line class="cls-1" x1="90.05" y1="182.53" x2="193.05" y2="182.53"/>
    <line class="cls-1" x1="90.05" y1="207.53" x2="193.05" y2="207.53"/>
  </g>
  <g>
    <rect class="cls-4" x="322.28" y="300.26" width="101" height="101"/>
    <polygon class="cls-9" points="340.86 376.46 362.39 344.46 375.01 361.46 397.28 321.46 397.28 376.49 340.86 376.46"/>
  </g>
  <g>
    <path class="cls-3" d="m281.36,384.37v-38.13h-24.48c-1.95-7.71-5.03-14.97-9.06-21.58l17.19-17.19-26.96-26.96-17.31,17.31c-6.65-3.97-13.93-6.99-21.66-8.87v-24.31h-38.13v24.48c-7.71,1.95-14.97,5.03-21.58,9.06l-17.19-17.19-26.96,26.96,17.31,17.31c-3.97,6.65-6.99,13.93-8.87,21.66h-24.31v38.13h24.48c1.95,7.71,5.03,14.97,9.06,21.58l-17.19,17.19,26.96,26.96,17.31-17.31c6.65,3.97,13.93,6.99,21.66,8.87v24.31h38.13v-24.48c7.71-1.95,14.97-5.03,21.58-9.06l17.19,17.19,26.96-26.96-17.31-17.31c3.97-6.65,6.99-13.93,8.87-21.66h24.31Zm-101,15.72c-19.02,0-34.45-15.42-34.45-34.45s15.42-34.45,34.45-34.45,34.45,15.42,34.45,34.45-15.42,34.45-34.45,34.45Z"/>
    <circle class="cls-5" cx="180.36" cy="365.65" r="33.5"/>
  </g>
  <rect class="cls-3" x="282.28" y="87.03" width="181" height="181" rx="6.35" ry="6.35"/>
  <line class="cls-2" x1="373.28" y1="134.03" x2="373.28" y2="240.03"/>
  <text class="cls-10" transform="translate(313.63 156.91)"><tspan x="0" y="0">A</tspan></text>
  <text class="cls-10" transform="translate(405.63 156.91)"><tspan x="0" y="0">B</tspan></text>
  <line class="cls-2" x1="306.28" y1="183.03" x2="350.28" y2="183.03"/>
  <line class="cls-2" x1="306.28" y1="202.03" x2="350.28" y2="202.03"/>
  <line class="cls-2" x1="306.28" y1="221.03" x2="328.28" y2="221.03"/>
  <line class="cls-2" x1="395.28" y1="183.03" x2="439.28" y2="183.03"/>
  <line class="cls-2" x1="395.28" y1="202.03" x2="439.28" y2="202.03"/>
  <line class="cls-2" x1="395.28" y1="221.03" x2="417.28" y2="221.03"/>
</svg>