<?xml version="1.0" encoding="UTF-8"?>
<svg id="Layer_1" data-name="Layer 1" xmlns="http://www.w3.org/2000/svg" viewBox="0 0 512 512">
  <defs>
    <style>
      .cls-1 {
        stroke-width: 12.25px;
      }

      .cls-1, .cls-2, .cls-3, .cls-4, .cls-5, .cls-6, .cls-7, .cls-8, .cls-9 {
        stroke: #000;
        stroke-linejoin: round;
      }

      .cls-1, .cls-2, .cls-3, .cls-4, .cls-5, .cls-6, .cls-7, .cls-9 {
        stroke-linecap: round;
      }

      .cls-1, .cls-2, .cls-6, .cls-7, .cls-9 {
        fill: none;
      }

      .cls-1, .cls-6 {
        stroke-dasharray: 0 0 0 25;
      }

      .cls-2, .cls-4, .cls-6, .cls-8 {
        stroke-width: 12px;
      }

      .cls-3 {
        stroke-width: 11.29px;
      }

      .cls-3, .cls-5 {
        fill: #fff;
      }

      .cls-10, .cls-11 {
        stroke-width: 0px;
      }

      .cls-10, .cls-4 {
        fill: #0265a0;
      }

      .cls-12 {
        opacity: .31;
      }

      .cls-5, .cls-7 {
        stroke-width: 12.66px;
      }

      .cls-8 {
        fill: #f27512;
      }

      .cls-9 {
        stroke-width: 12.25px;
      }
    </style>
  </defs>
  <g class="cls-12">
    <path class="cls-10" d="m499.13,280.99c-5.84-40.5-26.09-81.53-58.91-106.8-35.46-27.31-76.64-35.46-107-71.03-16-18.75-28.92-40.14-51.49-51.9-22.56-11.76-50.28-8.98-72.76,1.64-20.28,9.58-26.15,28.7-31.87,48.8-12.31,43.26-32.63,84.26-59.71,120.18-12.54,16.64-26.67,32.98-42.22,46.85-15.67,13.97-33.52,25.49-47.71,41.09-22.15,24.36-20.58,57.85-1.88,84.31,11.15,15.79,26.76,27.7,43.17,37.6,9.33,5.63,19.67,9.05,30,12.34,26.14,8.31,49.9-3.84,73.26-14.36,34.96-15.74,74.28-18.05,112.08-17.75,34.51.27,68.99-2.98,103.04-8.5,34.94-5.67,82.91-8.21,101.24-44.13,11.77-23.08,14.74-50.8,10.77-78.32Z"/>
  </g>
  <g>
    <polygon class="cls-11" points="300.33 379.35 282.14 389.85 282.14 368.85 300.33 379.35"/>
    <polygon class="cls-11" points="328.33 379.35 310.14 389.85 310.14 368.85 328.33 379.35"/>
  </g>
  <g>
    <polygon class="cls-11" points="78.33 82.35 60.14 71.85 60.14 92.85 78.33 82.35"/>
    <polygon class="cls-11" points="106.33 82.35 88.14 71.85 88.14 92.85 106.33 82.35"/>
  </g>
  <rect class="cls-3" x="60" y="122.7" width="311.5" height="220.2" rx="10.7" ry="10.7"/>
  <g>
    <rect class="cls-5" x="387.5" y="328.4" width="81" height="140" rx="40.5" ry="40.5"/>
    <line class="cls-7" x1="427.5" y1="335.4" x2="427.5" y2="398.4"/>
  </g>
  <rect class="cls-4" x="233.5" y="189.4" width="101" height="101"/>
  <line class="cls-2" x1="99" y1="207.9" x2="186" y2="207.9"/>
  <line class="cls-2" x1="99" y1="231.9" x2="186" y2="231.9"/>
  <line class="cls-2" x1="99" y1="255.9" x2="163" y2="255.9"/>
  <line class="cls-2" x1="60" y1="156.9" x2="334" y2="156.9"/>
  <line class="cls-2" x1="102" y1="299.9" x2="138" y2="299.9"/>
  <path class="cls-2" d="m428,328.4v-76.8c0-6.9-5.59-12.48-12.48-12.48h-131.52"/>
  <g>
    <circle class="cls-8" cx="371" cy="111.19" r="63"/>
    <path class="cls-11" d="m367.49,140.95v-6.7c-5.04-.29-10.01-1.66-12.75-3.1l2.3-9.94c3.24,1.58,7.71,3.17,12.67,3.17,3.67,0,6.26-1.01,6.26-3.31s-2.16-3.6-7.49-5.26c-7.85-2.52-13.39-6.19-13.39-13.47,0-6.55,4.54-11.74,12.75-13.39v-6.7h8.14v6.12c4.97.14,8.35,1.15,10.95,2.3l-2.3,9.58c-1.94-.79-5.47-2.45-10.87-2.45-4.25,0-5.54,1.51-5.54,3.1,0,1.8,2.45,3.17,8.5,5.26,9.07,3.02,12.39,7.13,12.39,13.68s-4.75,12.17-13.39,13.75v7.34h-8.21Z"/>
  </g>
  <line class="cls-6" x1="93" y1="139.9" x2="162" y2="139.9"/>
  <line class="cls-1" x1="186" y1="378.9" x2="246" y2="378.9"/>
  <line class="cls-9" x1="66" y1="378.9" x2="186" y2="378.9"/>
</svg>